<svg xmlns="http://www.w3.org/2000/svg" xmlns:xlink="http://www.w3.org/1999/xlink" width="48" zoomAndPan="magnify" viewBox="0 0 36 36.000001" height="48" preserveAspectRatio="xMidYMid meet" version="1.0"><defs><clipPath id="d4a164e25f"><path d="M 0.941406 0.457031 L 35.238281 0.457031 L 35.238281 34.753906 L 0.941406 34.753906 Z M 0.941406 0.457031 " clip-rule="nonzero"/></clipPath><clipPath id="c35dbe6fe5"><path d="M 4.199219 3.464844 L 32.257812 3.464844 L 32.257812 31.523438 L 4.199219 31.523438 Z M 4.199219 3.464844 " clip-rule="nonzero"/></clipPath><clipPath id="96f6469da3"><path d="M 18.226562 3.464844 C 10.480469 3.464844 4.199219 9.746094 4.199219 17.496094 C 4.199219 25.242188 10.480469 31.523438 18.226562 31.523438 C 25.976562 31.523438 32.257812 25.242188 32.257812 17.496094 C 32.257812 9.746094 25.976562 3.464844 18.226562 3.464844 Z M 18.226562 3.464844 " clip-rule="nonzero"/></clipPath><linearGradient x1="-0.00000141136" gradientTransform="matrix(0.109602, 0, 0, 0.109602, 4.198986, 3.466218)" y1="128" x2="255.99999" gradientUnits="userSpaceOnUse" y2="128" id="c8d00aa86e"><stop stop-opacity="1" stop-color="rgb(100%, 82.699585%, 53.69873%)" offset="0"/><stop stop-opacity="1" stop-color="rgb(100%, 82.711792%, 53.820801%)" offset="0.0625"/><stop stop-opacity="1" stop-color="rgb(100%, 82.736206%, 54.064941%)" offset="0.125"/><stop stop-opacity="1" stop-color="rgb(100%, 82.762146%, 54.309082%)" offset="0.1875"/><stop stop-opacity="1" stop-color="rgb(100%, 82.78656%, 54.551697%)" offset="0.25"/><stop stop-opacity="1" stop-color="rgb(100%, 82.810974%, 54.795837%)" offset="0.3125"/><stop stop-opacity="1" stop-color="rgb(100%, 82.836914%, 55.039978%)" offset="0.375"/><stop stop-opacity="1" stop-color="rgb(100%, 82.861328%, 55.284119%)" offset="0.4375"/><stop stop-opacity="1" stop-color="rgb(100%, 82.885742%, 55.526733%)" offset="0.5"/><stop stop-opacity="1" stop-color="rgb(100%, 82.911682%, 55.770874%)" offset="0.5625"/><stop stop-opacity="1" stop-color="rgb(100%, 82.936096%, 56.015015%)" offset="0.625"/><stop stop-opacity="1" stop-color="rgb(100%, 82.962036%, 56.259155%)" offset="0.6875"/><stop stop-opacity="1" stop-color="rgb(100%, 82.98645%, 56.50177%)" offset="0.75"/><stop stop-opacity="1" stop-color="rgb(100%, 83.010864%, 56.745911%)" offset="0.8125"/><stop stop-opacity="1" stop-color="rgb(100%, 83.036804%, 56.990051%)" offset="0.875"/><stop stop-opacity="1" stop-color="rgb(100%, 83.061218%, 57.232666%)" offset="0.9375"/><stop stop-opacity="1" stop-color="rgb(100%, 83.087158%, 57.476807%)" offset="1"/></linearGradient></defs><g clip-path="url(#d4a164e25f)"><path fill="#fccf7e" d="M 35.515625 17.742188 C 31.808594 19.617188 31.429688 21.402344 34.15625 24.46875 C 30.054688 24.652344 29.0625 26.117188 30.449219 29.964844 C 26.601562 28.574219 25.140625 29.566406 24.957031 33.667969 C 21.890625 30.941406 20.101562 31.324219 18.226562 35.027344 C 16.351562 31.324219 14.566406 30.941406 11.5 33.667969 C 11.316406 29.566406 9.851562 28.574219 6.003906 29.964844 C 7.394531 26.117188 6.402344 24.652344 2.300781 24.46875 C 5.027344 21.402344 4.648438 19.617188 0.941406 17.742188 C 4.648438 15.867188 5.027344 14.078125 2.300781 11.011719 C 6.402344 10.828125 7.394531 9.367188 6.003906 5.519531 C 9.851562 6.910156 11.316406 5.914062 11.5 1.8125 C 14.566406 4.539062 16.351562 4.160156 18.226562 0.457031 C 20.101562 4.160156 21.890625 4.539062 24.957031 1.8125 C 25.140625 5.914062 26.601562 6.910156 30.449219 5.519531 C 29.0625 9.367188 30.054688 10.828125 34.15625 11.011719 C 31.429688 14.078125 31.808594 15.867188 35.515625 17.742188 " fill-opacity="1" fill-rule="evenodd"/></g><path fill="#faf255" d="M 30.449219 17.742188 C 30.449219 24.492188 24.976562 29.964844 18.226562 29.964844 C 11.476562 29.964844 6.007812 24.492188 6.007812 17.742188 C 6.007812 10.992188 11.476562 5.519531 18.226562 5.519531 C 24.976562 5.519531 30.449219 10.992188 30.449219 17.742188 " fill-opacity="1" fill-rule="evenodd"/><path fill="#fbf892" d="M 27.371094 17.742188 C 27.371094 22.789062 23.277344 26.882812 18.226562 26.882812 C 13.179688 26.882812 9.085938 22.789062 9.085938 17.742188 C 9.085938 12.691406 13.179688 8.601562 18.226562 8.601562 C 23.277344 8.601562 27.371094 12.691406 27.371094 17.742188 " fill-opacity="1" fill-rule="evenodd"/><g clip-path="url(#c35dbe6fe5)"><g clip-path="url(#96f6469da3)"><path fill="url(#c8d00aa86e)" d="M 4.199219 3.464844 L 4.199219 31.523438 L 32.257812 31.523438 L 32.257812 3.464844 Z M 4.199219 3.464844 " fill-rule="nonzero"/></g></g></svg>