<svg xmlns="http://www.w3.org/2000/svg" xmlns:xlink="http://www.w3.org/1999/xlink" width="48" zoomAndPan="magnify" viewBox="0 0 36 36.000001" height="48" preserveAspectRatio="xMidYMid meet" version="1.0"><defs><clipPath id="294ed348c1"><path d="M 7 6 L 30 6 L 30 29 L 7 29 Z M 7 6 " clip-rule="nonzero"/></clipPath><clipPath id="4c407e896d"><path d="M 17.996094 -3.273438 L 38.636719 17.363281 L 17.996094 38.003906 L -2.644531 17.363281 Z M 17.996094 -3.273438 " clip-rule="nonzero"/></clipPath><clipPath id="0f9bd618f0"><path d="M 17.996094 -3.273438 L 38.636719 17.363281 L 17.996094 38.003906 L -2.644531 17.363281 Z M 17.996094 -3.273438 " clip-rule="nonzero"/></clipPath></defs><g clip-path="url(#294ed348c1)"><g clip-path="url(#4c407e896d)"><g clip-path="url(#0f9bd618f0)"><path fill="#1d2445" d="M 28.386719 7.070312 C 28.15625 6.84375 27.890625 6.671875 27.59375 6.554688 C 27.292969 6.433594 26.984375 6.378906 26.660156 6.382812 C 26.339844 6.386719 26.03125 6.453125 25.734375 6.582031 C 25.4375 6.707031 25.179688 6.886719 24.953125 7.117188 L 18.082031 13.988281 L 11.210938 7.117188 C 10.984375 6.882812 10.722656 6.703125 10.421875 6.578125 C 10.125 6.449219 9.8125 6.382812 9.488281 6.382812 C 9.160156 6.378906 8.847656 6.441406 8.546875 6.5625 C 8.246094 6.6875 7.980469 6.863281 7.75 7.09375 C 7.523438 7.324219 7.34375 7.589844 7.222656 7.890625 C 7.097656 8.191406 7.039062 8.503906 7.039062 8.828125 C 7.042969 9.152344 7.105469 9.464844 7.234375 9.765625 C 7.363281 10.0625 7.542969 10.328125 7.777344 10.554688 L 14.648438 17.425781 L 7.777344 24.296875 C 7.542969 24.523438 7.363281 24.785156 7.234375 25.085938 C 7.105469 25.382812 7.042969 25.695312 7.039062 26.019531 C 7.039062 26.34375 7.097656 26.660156 7.222656 26.960938 C 7.34375 27.261719 7.523438 27.527344 7.75 27.753906 C 7.980469 27.984375 8.246094 28.160156 8.546875 28.285156 C 8.847656 28.410156 9.160156 28.46875 9.488281 28.46875 C 9.8125 28.464844 10.125 28.398438 10.421875 28.273438 C 10.722656 28.144531 10.984375 27.964844 11.210938 27.730469 L 18.082031 20.859375 L 24.953125 27.730469 C 25.179688 27.964844 25.441406 28.144531 25.742188 28.273438 C 26.042969 28.398438 26.351562 28.464844 26.679688 28.46875 C 27.003906 28.46875 27.316406 28.410156 27.617188 28.285156 C 27.917969 28.160156 28.183594 27.984375 28.414062 27.753906 C 28.644531 27.527344 28.820312 27.261719 28.945312 26.960938 C 29.066406 26.660156 29.128906 26.34375 29.125 26.019531 C 29.121094 25.695312 29.058594 25.382812 28.929688 25.085938 C 28.804688 24.785156 28.621094 24.523438 28.390625 24.296875 L 21.519531 17.425781 L 28.390625 10.554688 C 28.625 10.324219 28.804688 10.058594 28.933594 9.757812 C 29.0625 9.453125 29.125 9.140625 29.125 8.8125 C 29.125 8.484375 29.058594 8.167969 28.933594 7.867188 C 28.804688 7.5625 28.621094 7.296875 28.386719 7.070312 Z M 28.386719 7.070312 " fill-opacity="1" fill-rule="nonzero"/></g></g></g></svg>