<svg xmlns="http://www.w3.org/2000/svg" xmlns:xlink="http://www.w3.org/1999/xlink" width="50" zoomAndPan="magnify" viewBox="0 0 37.5 37.499999" height="50" preserveAspectRatio="xMidYMid meet" version="1.0"><defs><clipPath id="4987c5698b"><path d="M 0 0 L 36.496094 0 L 36.496094 37.007812 L 0 37.007812 Z M 0 0 " clip-rule="nonzero"/></clipPath><clipPath id="7d16689837"><path d="M 3.515625 3.699219 L 33.304688 3.699219 L 33.304688 33.492188 L 3.515625 33.492188 Z M 3.515625 3.699219 " clip-rule="nonzero"/></clipPath><clipPath id="df83d29304"><path d="M 18.410156 3.699219 C 10.183594 3.699219 3.515625 10.371094 3.515625 18.597656 C 3.515625 26.820312 10.183594 33.492188 18.410156 33.492188 C 26.636719 33.492188 33.304688 26.820312 33.304688 18.597656 C 33.304688 10.371094 26.636719 3.699219 18.410156 3.699219 Z M 18.410156 3.699219 " clip-rule="nonzero"/></clipPath><linearGradient x1="-0.0000012588" gradientTransform="matrix(0.116368, 0, 0, 0.116368, 3.515625, 3.700658)" y1="128" x2="255.999988" gradientUnits="userSpaceOnUse" y2="128" id="0b74f57429"><stop stop-opacity="1" stop-color="rgb(96.899414%, 74.499512%, 58.399963%)" offset="0"/><stop stop-opacity="1" stop-color="rgb(96.893311%, 74.456787%, 58.2901%)" offset="0.03125"/><stop stop-opacity="1" stop-color="rgb(96.881104%, 74.372864%, 58.070374%)" offset="0.0625"/><stop stop-opacity="1" stop-color="rgb(96.867371%, 74.287415%, 57.852173%)" offset="0.09375"/><stop stop-opacity="1" stop-color="rgb(96.855164%, 74.203491%, 57.632446%)" offset="0.125"/><stop stop-opacity="1" stop-color="rgb(96.842957%, 74.119568%, 57.414246%)" offset="0.15625"/><stop stop-opacity="1" stop-color="rgb(96.83075%, 74.034119%, 57.196045%)" offset="0.1875"/><stop stop-opacity="1" stop-color="rgb(96.818542%, 73.950195%, 56.976318%)" offset="0.21875"/><stop stop-opacity="1" stop-color="rgb(96.80481%, 73.866272%, 56.758118%)" offset="0.25"/><stop stop-opacity="1" stop-color="rgb(96.792603%, 73.780823%, 56.539917%)" offset="0.28125"/><stop stop-opacity="1" stop-color="rgb(96.780396%, 73.696899%, 56.32019%)" offset="0.3125"/><stop stop-opacity="1" stop-color="rgb(96.768188%, 73.612976%, 56.10199%)" offset="0.34375"/><stop stop-opacity="1" stop-color="rgb(96.755981%, 73.529053%, 55.883789%)" offset="0.375"/><stop stop-opacity="1" stop-color="rgb(96.742249%, 73.443604%, 55.664062%)" offset="0.40625"/><stop stop-opacity="1" stop-color="rgb(96.730042%, 73.35968%, 55.445862%)" offset="0.4375"/><stop stop-opacity="1" stop-color="rgb(96.717834%, 73.275757%, 55.226135%)" offset="0.46875"/><stop stop-opacity="1" stop-color="rgb(96.705627%, 73.190308%, 55.007935%)" offset="0.5"/><stop stop-opacity="1" stop-color="rgb(96.69342%, 73.106384%, 54.789734%)" offset="0.53125"/><stop stop-opacity="1" stop-color="rgb(96.679688%, 73.022461%, 54.570007%)" offset="0.5625"/><stop stop-opacity="1" stop-color="rgb(96.66748%, 72.937012%, 54.351807%)" offset="0.59375"/><stop stop-opacity="1" stop-color="rgb(96.655273%, 72.853088%, 54.133606%)" offset="0.625"/><stop stop-opacity="1" stop-color="rgb(96.643066%, 72.769165%, 53.913879%)" offset="0.65625"/><stop stop-opacity="1" stop-color="rgb(96.630859%, 72.685242%, 53.695679%)" offset="0.6875"/><stop stop-opacity="1" stop-color="rgb(96.617126%, 72.599792%, 53.477478%)" offset="0.71875"/><stop stop-opacity="1" stop-color="rgb(96.604919%, 72.515869%, 53.257751%)" offset="0.75"/><stop stop-opacity="1" stop-color="rgb(96.592712%, 72.431946%, 53.039551%)" offset="0.78125"/><stop stop-opacity="1" stop-color="rgb(96.580505%, 72.346497%, 52.82135%)" offset="0.8125"/><stop stop-opacity="1" stop-color="rgb(96.568298%, 72.262573%, 52.601624%)" offset="0.84375"/><stop stop-opacity="1" stop-color="rgb(96.556091%, 72.17865%, 52.383423%)" offset="0.875"/><stop stop-opacity="1" stop-color="rgb(96.542358%, 72.094727%, 52.163696%)" offset="0.90625"/><stop stop-opacity="1" stop-color="rgb(96.530151%, 72.009277%, 51.945496%)" offset="0.9375"/><stop stop-opacity="1" stop-color="rgb(96.517944%, 71.925354%, 51.727295%)" offset="0.96875"/><stop stop-opacity="1" stop-color="rgb(96.505737%, 71.841431%, 51.507568%)" offset="1"/></linearGradient><clipPath id="f5b73c3239"><path d="M 8.113281 8.113281 L 28 8.113281 L 28 28 L 8.113281 28 Z M 8.113281 8.113281 " clip-rule="nonzero"/></clipPath></defs><g clip-path="url(#4987c5698b)"><path fill="#f6b783" d="M 36.496094 18.503906 C 32.53125 20.511719 32.125 22.421875 35.042969 25.707031 C 30.65625 25.902344 29.589844 27.46875 31.078125 31.585938 C 26.960938 30.097656 25.394531 31.164062 25.195312 35.550781 C 21.914062 32.636719 20 33.042969 17.996094 37.007812 C 15.988281 33.042969 14.074219 32.636719 10.792969 35.550781 C 10.597656 31.164062 9.03125 30.097656 4.910156 31.585938 C 6.398438 27.46875 5.335938 25.902344 0.945312 25.707031 C 3.863281 22.421875 3.457031 20.511719 -0.507812 18.503906 C 3.457031 16.496094 3.863281 14.582031 0.945312 11.300781 C 5.335938 11.105469 6.398438 9.539062 4.910156 5.417969 C 9.03125 6.90625 10.597656 5.84375 10.792969 1.453125 C 14.074219 4.371094 15.988281 3.964844 17.996094 0 C 20 3.964844 21.914062 4.371094 25.195312 1.453125 C 25.394531 5.84375 26.960938 6.90625 31.078125 5.417969 C 29.589844 9.539062 30.65625 11.105469 35.042969 11.300781 C 32.125 14.582031 32.53125 16.496094 36.496094 18.503906 " fill-opacity="1" fill-rule="evenodd"/></g><path fill="#fa9f55" d="M 31.078125 18.503906 C 31.078125 25.730469 25.21875 31.585938 17.996094 31.585938 C 10.769531 31.585938 4.910156 25.730469 4.910156 18.503906 C 4.910156 11.277344 10.769531 5.421875 17.996094 5.421875 C 25.21875 5.421875 31.078125 11.277344 31.078125 18.503906 " fill-opacity="1" fill-rule="evenodd"/><path fill="#fccf7e" d="M 27.78125 18.503906 C 27.78125 23.90625 23.398438 28.289062 17.996094 28.289062 C 12.589844 28.289062 8.210938 23.90625 8.210938 18.503906 C 8.210938 13.097656 12.589844 8.71875 17.996094 8.71875 C 23.398438 8.71875 27.78125 13.097656 27.78125 18.503906 " fill-opacity="1" fill-rule="evenodd"/><g clip-path="url(#7d16689837)"><g clip-path="url(#df83d29304)"><path fill="url(#0b74f57429)" d="M 3.515625 3.699219 L 3.515625 33.492188 L 33.304688 33.492188 L 33.304688 3.699219 Z M 3.515625 3.699219 " fill-rule="nonzero"/></g></g><g clip-path="url(#f5b73c3239)"><path fill="#1d2445" d="M 17.964844 8.089844 C 17.75 8.09375 17.542969 8.140625 17.34375 8.226562 C 17.144531 8.308594 16.96875 8.429688 16.820312 8.585938 C 16.667969 8.742188 16.554688 8.917969 16.472656 9.121094 C 16.394531 9.320312 16.355469 9.53125 16.355469 9.746094 L 16.355469 16.277344 L 9.828125 16.277344 C 9.609375 16.273438 9.398438 16.3125 9.195312 16.394531 C 8.992188 16.476562 8.8125 16.59375 8.660156 16.746094 C 8.503906 16.898438 8.382812 17.078125 8.296875 17.277344 C 8.214844 17.480469 8.171875 17.691406 8.171875 17.90625 C 8.171875 18.125 8.214844 18.335938 8.296875 18.539062 C 8.382812 18.738281 8.503906 18.917969 8.660156 19.070312 C 8.8125 19.222656 8.992188 19.339844 9.195312 19.421875 C 9.398438 19.503906 9.609375 19.542969 9.828125 19.539062 L 16.355469 19.539062 L 16.355469 26.070312 C 16.355469 26.289062 16.394531 26.5 16.476562 26.703125 C 16.554688 26.90625 16.675781 27.085938 16.828125 27.238281 C 16.980469 27.394531 17.15625 27.515625 17.359375 27.597656 C 17.5625 27.683594 17.769531 27.726562 17.988281 27.726562 C 18.207031 27.726562 18.417969 27.683594 18.621094 27.597656 C 18.820312 27.515625 19 27.394531 19.152344 27.238281 C 19.304688 27.085938 19.421875 26.90625 19.503906 26.703125 C 19.585938 26.5 19.625 26.289062 19.621094 26.070312 L 19.621094 19.539062 L 26.152344 19.539062 C 26.371094 19.542969 26.582031 19.503906 26.785156 19.421875 C 26.988281 19.339844 27.164062 19.222656 27.320312 19.070312 C 27.476562 18.917969 27.597656 18.738281 27.679688 18.539062 C 27.765625 18.335938 27.808594 18.125 27.808594 17.90625 C 27.808594 17.691406 27.765625 17.480469 27.679688 17.277344 C 27.597656 17.078125 27.476562 16.898438 27.320312 16.746094 C 27.164062 16.59375 26.988281 16.476562 26.785156 16.394531 C 26.582031 16.3125 26.371094 16.273438 26.152344 16.277344 L 19.621094 16.277344 L 19.621094 9.746094 C 19.625 9.527344 19.585938 9.3125 19.503906 9.109375 C 19.417969 8.90625 19.300781 8.726562 19.144531 8.570312 C 18.988281 8.414062 18.808594 8.292969 18.601562 8.210938 C 18.398438 8.128906 18.1875 8.089844 17.964844 8.089844 Z M 17.964844 8.089844 " fill-opacity="1" fill-rule="nonzero"/></g></svg>